<svg xmlns="http://www.w3.org/2000/svg" width="65.733" height="84.862" viewBox="0 0 65.733 84.862">
  <g id="loop" transform="translate(-57.703 0)">
    <g id="Group_16" data-name="Group 16" transform="translate(57.703 0)">
      <g id="Group_15" data-name="Group 15" transform="translate(0 0)">
        <path id="Path_6" data-name="Path 6" d="M324.915,107.024c.017-.069.034-.139.051-.208.039-.165.077-.331.114-.5q.077-.349.147-.7c.021-.108.041-.217.061-.325q.063-.334.119-.671c.011-.067.023-.133.034-.2.046-.292.088-.584.126-.878q.013-.1.026-.2c.038-.3.073-.607.1-.912,0-.032.006-.065.009-.1q.041-.439.07-.881c0-.046.007-.091.009-.137q.029-.459.044-.92c0-.062,0-.123.005-.185.009-.313.015-.627.015-.942,0-.246,0-.49-.009-.735,0-.1-.006-.2-.009-.3q-.006-.2-.014-.4-.009-.214-.021-.428-.005-.1-.012-.192a32.625,32.625,0,0,0-9.562-21.185c-.053-.053-.108-.1-.164-.149a32.764,32.764,0,0,0-12.1-7.594,2.716,2.716,0,1,0-1.814,5.12,27.489,27.489,0,0,1,18.223,24.135c0,.06.008.121.011.181.006.115.012.23.017.345s.009.228.013.343c0,.082.005.164.007.246,0,.2.007.41.007.615,0,.263,0,.525-.013.787,0,.051,0,.1,0,.153q-.013.385-.037.769c0,.038-.005.076-.008.115q-.024.365-.058.729c0,.03-.005.061-.008.091-.024.251-.053.5-.084.751q-.012.094-.024.188-.047.357-.1.713c-.011.07-.024.14-.035.21q-.042.25-.088.5c-.02.106-.039.212-.06.317-.036.182-.074.363-.114.544q-.052.237-.108.474l-.016.067a27.489,27.489,0,0,1-17.516,19.455,2.714,2.714,0,1,0,1.812,5.118,32.871,32.871,0,0,0,17.584-14.731,2.777,2.777,0,0,0,.166-.259A32.826,32.826,0,0,0,324.915,107.024Z" transform="translate(-260.114 -56.834)" fill="#fff"/>
        <path id="Path_7" data-name="Path 7" d="M177.834,9.607a2.713,2.713,0,0,0-1.342-1.589L161.553.3a2.716,2.716,0,0,0-2.493,4.826L171.587,11.6l-6.665,12.9a2.716,2.716,0,1,0,4.826,2.492l7.911-15.314A2.726,2.726,0,0,0,177.834,9.607Z" transform="translate(-141.035 0)" fill="#fff"/>
        <path id="Path_8" data-name="Path 8" d="M81.415,125.119A27.479,27.479,0,0,1,63.135,99.259q0-.853.052-1.7c0-.045.006-.09.009-.135q.012-.19.027-.38t.034-.387c0-.038.007-.076.011-.114A27.5,27.5,0,0,1,81.413,73.393,2.715,2.715,0,1,0,79.6,68.275,32.933,32.933,0,0,0,59.609,88.251a2.742,2.742,0,0,0-.115.279,32.766,32.766,0,0,0-1.734,8.785s0,0,0,0q-.018.314-.031.629c0,.072,0,.144-.007.216,0,.144-.01.288-.013.432q-.007.331-.007.663t.007.658A32.529,32.529,0,0,0,64.594,119.4c.053.069.111.131.169.194A32.816,32.816,0,0,0,79.6,130.24a2.716,2.716,0,1,0,1.814-5.12Z" transform="translate(-57.703 -56.827)" fill="#fff"/>
        <path id="Path_9" data-name="Path 9" d="M250.407,363.606l-12.524-6.469,6.662-12.9a2.715,2.715,0,1,0-4.826-2.49l-7.906,15.316a2.713,2.713,0,0,0,1.166,3.657l14.934,7.715a2.716,2.716,0,0,0,2.493-4.826Z" transform="translate(-202.701 -283.873)" fill="#fff"/>
      </g>
    </g>
  </g>
</svg>
